<svg xmlns="http://www.w3.org/2000/svg" viewBox="0 0 800 400" width="800" height="400">
  <defs>
    <pattern id="grid" width="28" height="28" patternUnits="userSpaceOnUse">
      <path d="M 28 0 L 0 0 0 28" fill="none" stroke="rgba(255,255,255,0.03)" stroke-width="1"/>
    </pattern>
    <linearGradient id="bg" x1="0%" y1="0%" x2="100%" y2="100%">
      <stop offset="0%" stop-color="#04111a"/>
      <stop offset="100%" stop-color="#080a0e"/>
    </linearGradient>
    <radialGradient id="glow" cx="50%" cy="40%" r="55%">
      <stop offset="0%" stop-color="rgba(6,182,212,0.12)"/>
      <stop offset="100%" stop-color="rgba(0,0,0,0)"/>
    </radialGradient>
  </defs>

  <rect width="800" height="400" fill="url(#bg)"/>
  <rect width="800" height="400" fill="url(#grid)"/>
  <rect width="800" height="400" fill="url(#glow)"/>

  <!-- Label -->
  <text x="40" y="66" font-family="monospace" font-size="9" fill="rgba(6,182,212,0.45)" letter-spacing="1.5">SPORTS ANALYTICS</text>
  <rect x="40" y="72" width="280" height="1" fill="rgba(6,182,212,0.12)"/>

  <!-- Left: stat cards column -->
  <rect x="40" y="86" width="160" height="64" rx="6" fill="rgba(6,182,212,0.07)" stroke="rgba(6,182,212,0.22)" stroke-width="1"/>
  <text x="120" y="107" text-anchor="middle" font-family="monospace" font-size="22" fill="rgba(34,211,238,0.85)" font-weight="bold">87.4</text>
  <text x="120" y="120" text-anchor="middle" font-family="monospace" font-size="8" fill="rgba(6,182,212,0.55)">avg performance score</text>
  <text x="120" y="132" text-anchor="middle" font-family="monospace" font-size="7.5" fill="rgba(6,182,212,0.4)">↑ 4.2 vs last season</text>

  <rect x="40" y="162" width="160" height="64" rx="6" fill="rgba(6,182,212,0.06)" stroke="rgba(6,182,212,0.18)" stroke-width="1"/>
  <text x="120" y="183" text-anchor="middle" font-family="monospace" font-size="22" fill="rgba(34,211,238,0.75)" font-weight="bold">2,340</text>
  <text x="120" y="196" text-anchor="middle" font-family="monospace" font-size="8" fill="rgba(6,182,212,0.5)">matches analysed</text>
  <text x="120" y="208" text-anchor="middle" font-family="monospace" font-size="7.5" fill="rgba(6,182,212,0.38)">DuckDB · Parquet</text>

  <rect x="40" y="238" width="160" height="64" rx="6" fill="rgba(6,182,212,0.06)" stroke="rgba(6,182,212,0.18)" stroke-width="1"/>
  <text x="120" y="259" text-anchor="middle" font-family="monospace" font-size="22" fill="rgba(34,211,238,0.7)" font-weight="bold">94%</text>
  <text x="120" y="272" text-anchor="middle" font-family="monospace" font-size="8" fill="rgba(6,182,212,0.48)">prediction accuracy</text>
  <text x="120" y="284" text-anchor="middle" font-family="monospace" font-size="7.5" fill="rgba(6,182,212,0.36)">Claude reasoning</text>

  <!-- Center: bar chart -->
  <rect x="220" y="86" width="280" height="240" rx="6" fill="rgba(6,182,212,0.03)" stroke="rgba(6,182,212,0.12)" stroke-width="1"/>
  <text x="360" y="107" text-anchor="middle" font-family="monospace" font-size="9" fill="rgba(6,182,212,0.45)">Season Performance</text>

  <!-- Y axis labels -->
  <text x="234" y="130" font-family="monospace" font-size="7" fill="rgba(6,182,212,0.3)">100</text>
  <text x="234" y="166" font-family="monospace" font-size="7" fill="rgba(6,182,212,0.3)">75</text>
  <text x="234" y="202" font-family="monospace" font-size="7" fill="rgba(6,182,212,0.3)">50</text>
  <text x="234" y="238" font-family="monospace" font-size="7" fill="rgba(6,182,212,0.3)">25</text>

  <!-- horizontal grid lines -->
  <line x1="254" y1="126" x2="488" y2="126" stroke="rgba(6,182,212,0.07)" stroke-width="1"/>
  <line x1="254" y1="162" x2="488" y2="162" stroke="rgba(6,182,212,0.07)" stroke-width="1"/>
  <line x1="254" y1="198" x2="488" y2="198" stroke="rgba(6,182,212,0.07)" stroke-width="1"/>
  <line x1="254" y1="234" x2="488" y2="234" stroke="rgba(6,182,212,0.07)" stroke-width="1"/>
  <line x1="254" y1="270" x2="488" y2="270" stroke="rgba(6,182,212,0.1)" stroke-width="1"/>

  <!-- Bars (bottom at y=270) -->
  <rect x="262" y="192" width="20" height="78" rx="2" fill="rgba(6,182,212,0.28)"/>
  <rect x="292" y="172" width="20" height="98" rx="2" fill="rgba(6,182,212,0.36)"/>
  <rect x="322" y="160" width="20" height="110" rx="2" fill="rgba(6,182,212,0.44)"/>
  <rect x="352" y="148" width="20" height="122" rx="2" fill="rgba(6,182,212,0.52)"/>
  <rect x="382" y="154" width="20" height="116" rx="2" fill="rgba(6,182,212,0.48)"/>
  <rect x="412" y="138" width="20" height="132" rx="2" fill="rgba(6,182,212,0.56)"/>
  <rect x="442" y="128" width="20" height="142" rx="2" fill="rgba(34,211,238,0.68)"/>
  <rect x="462" y="126" width="20" height="144" rx="2" fill="rgba(34,211,238,0.72)"/>

  <!-- Month labels -->
  <text x="272" y="284" text-anchor="middle" font-family="monospace" font-size="7" fill="rgba(6,182,212,0.35)">Sep</text>
  <text x="302" y="284" text-anchor="middle" font-family="monospace" font-size="7" fill="rgba(6,182,212,0.35)">Oct</text>
  <text x="332" y="284" text-anchor="middle" font-family="monospace" font-size="7" fill="rgba(6,182,212,0.35)">Nov</text>
  <text x="362" y="284" text-anchor="middle" font-family="monospace" font-size="7" fill="rgba(6,182,212,0.35)">Dec</text>
  <text x="392" y="284" text-anchor="middle" font-family="monospace" font-size="7" fill="rgba(6,182,212,0.35)">Jan</text>
  <text x="422" y="284" text-anchor="middle" font-family="monospace" font-size="7" fill="rgba(6,182,212,0.35)">Feb</text>
  <text x="452" y="284" text-anchor="middle" font-family="monospace" font-size="7" fill="rgba(6,182,212,0.35)">Mar</text>
  <text x="472" y="284" text-anchor="middle" font-family="monospace" font-size="7" fill="rgba(6,182,212,0.35)">Apr</text>

  <!-- Right: player radar / scatter -->
  <rect x="520" y="86" width="240" height="240" rx="6" fill="rgba(6,182,212,0.03)" stroke="rgba(6,182,212,0.12)" stroke-width="1"/>
  <text x="640" y="107" text-anchor="middle" font-family="monospace" font-size="9" fill="rgba(6,182,212,0.45)">Player Clusters</text>

  <!-- Scatter plot dots -->
  <circle cx="570" cy="155" r="5" fill="rgba(34,211,238,0.7)"/>
  <circle cx="590" cy="140" r="4" fill="rgba(34,211,238,0.6)"/>
  <circle cx="610" cy="160" r="6" fill="rgba(34,211,238,0.75)"/>
  <circle cx="625" cy="130" r="4" fill="rgba(34,211,238,0.55)"/>
  <circle cx="648" cy="148" r="5" fill="rgba(34,211,238,0.65)"/>
  <circle cx="668" cy="135" r="3" fill="rgba(34,211,238,0.5)"/>
  <circle cx="686" cy="155" r="4" fill="rgba(34,211,238,0.55)"/>
  <circle cx="700" cy="142" r="6" fill="rgba(34,211,238,0.7)"/>

  <circle cx="558" cy="200" r="4" fill="rgba(6,182,212,0.45)"/>
  <circle cx="578" cy="215" r="5" fill="rgba(6,182,212,0.5)"/>
  <circle cx="600" cy="205" r="3" fill="rgba(6,182,212,0.4)"/>
  <circle cx="622" cy="218" r="4" fill="rgba(6,182,212,0.42)"/>
  <circle cx="645" cy="200" r="6" fill="rgba(6,182,212,0.55)"/>
  <circle cx="668" cy="212" r="4" fill="rgba(6,182,212,0.45)"/>
  <circle cx="690" cy="204" r="5" fill="rgba(6,182,212,0.5)"/>

  <circle cx="565" cy="248" r="3" fill="rgba(6,182,212,0.28)"/>
  <circle cx="590" cy="258" r="4" fill="rgba(6,182,212,0.32)"/>
  <circle cx="614" cy="244" r="5" fill="rgba(6,182,212,0.35)"/>
  <circle cx="638" cy="255" r="3" fill="rgba(6,182,212,0.3)"/>
  <circle cx="660" cy="246" r="4" fill="rgba(6,182,212,0.33)"/>
  <circle cx="682" cy="258" r="5" fill="rgba(6,182,212,0.36)"/>
  <circle cx="704" cy="244" r="3" fill="rgba(6,182,212,0.28)"/>

  <!-- Cluster labels -->
  <text x="640" y="122" text-anchor="middle" font-family="monospace" font-size="7.5" fill="rgba(34,211,238,0.45)">elite tier</text>
  <text x="630" y="232" text-anchor="middle" font-family="monospace" font-size="7.5" fill="rgba(6,182,212,0.4)">mid tier</text>
  <text x="634" y="270" text-anchor="middle" font-family="monospace" font-size="7.5" fill="rgba(6,182,212,0.32)">developing</text>

  <!-- Bottom label -->
  <text x="40" y="378" font-family="monospace" font-size="9" fill="rgba(6,182,212,0.32)" letter-spacing="2">SPORTS ANALYTICS · DUCKDB · PARQUET · CLAUDE</text>
</svg>
