<svg xmlns="http://www.w3.org/2000/svg" viewBox="0 0 800 400" width="800" height="400">
  <defs>
    <pattern id="grid" width="28" height="28" patternUnits="userSpaceOnUse">
      <path d="M 28 0 L 0 0 0 28" fill="none" stroke="rgba(255,255,255,0.03)" stroke-width="1"/>
    </pattern>
    <linearGradient id="bg" x1="0%" y1="0%" x2="100%" y2="100%">
      <stop offset="0%" stop-color="#141008"/>
      <stop offset="100%" stop-color="#0a0a0e"/>
    </linearGradient>
    <radialGradient id="glow" cx="55%" cy="45%" r="52%">
      <stop offset="0%" stop-color="rgba(245,158,11,0.12)"/>
      <stop offset="100%" stop-color="rgba(0,0,0,0)"/>
    </radialGradient>
  </defs>

  <rect width="800" height="400" fill="url(#bg)"/>
  <rect width="800" height="400" fill="url(#grid)"/>
  <rect width="800" height="400" fill="url(#glow)"/>

  <!-- Left: Kafka event stream -->
  <text x="40" y="74" font-family="monospace" font-size="9" fill="rgba(245,158,11,0.45)" letter-spacing="1.5">REALTIME STREAM</text>

  <!-- Event stream pulses -->
  <rect x="40" y="86" width="240" height="22" rx="4" fill="rgba(245,158,11,0.06)" stroke="rgba(245,158,11,0.2)" stroke-width="1"/>
  <circle cx="58" cy="97" r="4" fill="rgba(245,158,11,0.7)"/>
  <text x="70" y="101" font-family="monospace" font-size="8" fill="rgba(255,255,255,0.5)">match_start · team_A vs team_B · 14:02:33</text>

  <rect x="40" y="114" width="240" height="22" rx="4" fill="rgba(245,158,11,0.05)" stroke="rgba(245,158,11,0.15)" stroke-width="1"/>
  <circle cx="58" cy="125" r="4" fill="rgba(245,158,11,0.5)"/>
  <text x="70" y="129" font-family="monospace" font-size="8" fill="rgba(255,255,255,0.45)">score_update · 2:1 · round 3 · 14:04:11</text>

  <rect x="40" y="142" width="240" height="22" rx="4" fill="rgba(245,158,11,0.04)" stroke="rgba(245,158,11,0.12)" stroke-width="1"/>
  <circle cx="58" cy="153" r="4" fill="rgba(245,158,11,0.35)"/>
  <text x="70" y="157" font-family="monospace" font-size="8" fill="rgba(255,255,255,0.38)">player_stat · kills:4 assists:2 · 14:05:47</text>

  <rect x="40" y="170" width="240" height="22" rx="4" fill="rgba(245,158,11,0.03)" stroke="rgba(245,158,11,0.1)" stroke-width="1"/>
  <circle cx="58" cy="181" r="3.5" fill="rgba(245,158,11,0.22)"/>
  <text x="70" y="185" font-family="monospace" font-size="8" fill="rgba(255,255,255,0.3)">match_end · winner: team_A · 14:18:02</text>

  <!-- Kafka label -->
  <rect x="40" y="206" width="100" height="24" rx="4" fill="rgba(245,158,11,0.07)" stroke="rgba(245,158,11,0.22)" stroke-width="1"/>
  <text x="90" y="222" text-anchor="middle" font-family="monospace" font-size="9" fill="rgba(251,191,36,0.75)">Kafka</text>

  <rect x="148" y="206" width="80" height="24" rx="4" fill="rgba(245,158,11,0.07)" stroke="rgba(245,158,11,0.22)" stroke-width="1"/>
  <text x="188" y="222" text-anchor="middle" font-family="monospace" font-size="9" fill="rgba(251,191,36,0.75)">OpenAI</text>

  <!-- Arrow to middle -->
  <line x1="280" y1="155" x2="330" y2="155" stroke="rgba(245,158,11,0.45)" stroke-width="1.5"/>
  <polygon points="326,151 334,155 326,159" fill="rgba(245,158,11,0.55)"/>

  <!-- Middle: processing engine -->
  <rect x="330" y="90" width="160" height="240" rx="8" fill="rgba(245,158,11,0.05)" stroke="rgba(245,158,11,0.18)" stroke-width="1"/>
  <text x="410" y="116" text-anchor="middle" font-family="monospace" font-size="10" fill="rgba(251,191,36,0.75)">Stream Processor</text>
  <text x="410" y="129" text-anchor="middle" font-family="monospace" font-size="7.5" fill="rgba(245,158,11,0.45)">event aggregation</text>

  <!-- processor nodes -->
  <rect x="348" y="142" width="124" height="28" rx="4" fill="rgba(245,158,11,0.08)" stroke="rgba(245,158,11,0.22)" stroke-width="1"/>
  <text x="410" y="160" text-anchor="middle" font-family="monospace" font-size="8.5" fill="rgba(251,191,36,0.72)">Score Tracker</text>

  <rect x="348" y="178" width="124" height="28" rx="4" fill="rgba(245,158,11,0.08)" stroke="rgba(245,158,11,0.22)" stroke-width="1"/>
  <text x="410" y="196" text-anchor="middle" font-family="monospace" font-size="8.5" fill="rgba(251,191,36,0.72)">Player Stats</text>

  <rect x="348" y="214" width="124" height="28" rx="4" fill="rgba(245,158,11,0.08)" stroke="rgba(245,158,11,0.22)" stroke-width="1"/>
  <text x="410" y="232" text-anchor="middle" font-family="monospace" font-size="8.5" fill="rgba(251,191,36,0.72)">Bracket Engine</text>

  <rect x="348" y="250" width="124" height="28" rx="4" fill="rgba(245,158,11,0.1)" stroke="rgba(245,158,11,0.28)" stroke-width="1"/>
  <text x="410" y="268" text-anchor="middle" font-family="monospace" font-size="8.5" fill="rgba(251,191,36,0.78)">AI Commentary</text>

  <!-- Arrow to right -->
  <line x1="490" y1="210" x2="530" y2="210" stroke="rgba(245,158,11,0.45)" stroke-width="1.5"/>
  <polygon points="526,206 534,210 526,214" fill="rgba(245,158,11,0.55)"/>

  <!-- Right: live dashboard -->
  <rect x="530" y="74" width="230" height="290" rx="8" fill="rgba(245,158,11,0.04)" stroke="rgba(245,158,11,0.14)" stroke-width="1"/>
  <text x="645" y="98" text-anchor="middle" font-family="monospace" font-size="9" fill="rgba(245,158,11,0.45)" letter-spacing="1">LIVE DASHBOARD</text>

  <!-- Match scoreboard -->
  <rect x="546" y="106" width="198" height="52" rx="5" fill="rgba(245,158,11,0.07)" stroke="rgba(245,158,11,0.2)" stroke-width="1"/>
  <text x="600" y="125" text-anchor="middle" font-family="monospace" font-size="11" fill="rgba(255,255,255,0.75)">Team A</text>
  <text x="645" y="125" text-anchor="middle" font-family="monospace" font-size="14" fill="rgba(251,191,36,0.9)" font-weight="bold">3</text>
  <text x="662" y="125" text-anchor="middle" font-family="monospace" font-size="11" fill="rgba(255,255,255,0.4)">:</text>
  <text x="678" y="125" text-anchor="middle" font-family="monospace" font-size="14" fill="rgba(255,255,255,0.55)">1</text>
  <text x="720" y="125" text-anchor="middle" font-family="monospace" font-size="11" fill="rgba(255,255,255,0.55)">Team B</text>
  <text x="645" y="148" text-anchor="middle" font-family="monospace" font-size="8" fill="rgba(245,158,11,0.55)">● LIVE  Round 4/5</text>

  <!-- Mini timeline bars -->
  <text x="546" y="178" font-family="monospace" font-size="8" fill="rgba(245,158,11,0.4)">Round timeline</text>
  <rect x="546" y="184" width="35" height="10" rx="2" fill="rgba(245,158,11,0.5)"/>
  <rect x="585" y="184" width="35" height="10" rx="2" fill="rgba(245,158,11,0.35)"/>
  <rect x="624" y="184" width="35" height="10" rx="2" fill="rgba(245,158,11,0.5)"/>
  <rect x="663" y="184" width="35" height="10" rx="2" fill="rgba(245,158,11,0.65)"/>
  <rect x="702" y="184" width="35" height="10" rx="2" fill="rgba(245,158,11,0.15)" stroke="rgba(245,158,11,0.3)" stroke-width="1" stroke-dasharray="2,2"/>

  <!-- Player stats table -->
  <rect x="546" y="206" width="198" height="118" rx="5" fill="rgba(0,0,0,0.15)" stroke="rgba(245,158,11,0.1)" stroke-width="1"/>
  <text x="554" y="222" font-family="monospace" font-size="8" fill="rgba(245,158,11,0.45)">Player</text>
  <text x="650" y="222" font-family="monospace" font-size="8" fill="rgba(245,158,11,0.45)">K</text>
  <text x="672" y="222" font-family="monospace" font-size="8" fill="rgba(245,158,11,0.45)">A</text>
  <text x="694" y="222" font-family="monospace" font-size="8" fill="rgba(245,158,11,0.45)">Rating</text>
  <line x1="546" y1="226" x2="744" y2="226" stroke="rgba(245,158,11,0.12)" stroke-width="1"/>
  <text x="554" y="239" font-family="monospace" font-size="8" fill="rgba(255,255,255,0.55)">xXxSniper</text>
  <text x="650" y="239" font-family="monospace" font-size="8" fill="rgba(255,255,255,0.55)">12</text>
  <text x="672" y="239" font-family="monospace" font-size="8" fill="rgba(255,255,255,0.45)">4</text>
  <text x="694" y="239" font-family="monospace" font-size="8" fill="rgba(251,191,36,0.75)">1.84</text>
  <text x="554" y="252" font-family="monospace" font-size="8" fill="rgba(255,255,255,0.45)">ProGamer99</text>
  <text x="650" y="252" font-family="monospace" font-size="8" fill="rgba(255,255,255,0.45)">8</text>
  <text x="672" y="252" font-family="monospace" font-size="8" fill="rgba(255,255,255,0.4)">6</text>
  <text x="694" y="252" font-family="monospace" font-size="8" fill="rgba(251,191,36,0.6)">1.31</text>
  <text x="554" y="265" font-family="monospace" font-size="8" fill="rgba(255,255,255,0.38)">SpeedRun_K</text>
  <text x="650" y="265" font-family="monospace" font-size="8" fill="rgba(255,255,255,0.38)">6</text>
  <text x="672" y="265" font-family="monospace" font-size="8" fill="rgba(255,255,255,0.35)">8</text>
  <text x="694" y="265" font-family="monospace" font-size="8" fill="rgba(251,191,36,0.5)">1.12</text>

  <!-- AI insight -->
  <rect x="546" y="332" width="198" height="22" rx="4" fill="rgba(245,158,11,0.07)" stroke="rgba(245,158,11,0.2)" stroke-width="1"/>
  <text x="554" y="347" font-family="monospace" font-size="7.5" fill="rgba(251,191,36,0.65)">AI: Team A win probability 78% ↑</text>

  <!-- Bottom label -->
  <text x="40" y="378" font-family="monospace" font-size="9" fill="rgba(245,158,11,0.35)" letter-spacing="2">TOURNAMENT INTELLIGENCE · KAFKA · POSTGRESQL · OPENAI</text>
</svg>
